<?xml version="1.0" encoding="utf-8"?>
<!-- Generator: Adobe Illustrator 15.0.2, SVG Export Plug-In . SVG Version: 6.00 Build 0)  -->
<!-- Derpy Squid by Amy Shropshire http://twitter.com/amyshropshire -->
<!DOCTYPE svg PUBLIC "-//W3C//DTD SVG 1.1//EN" "http://www.w3.org/Graphics/SVG/1.1/DTD/svg11.dtd">
<svg version="1.1" id="Layer_1" xmlns="http://www.w3.org/2000/svg" xmlns:xlink="http://www.w3.org/1999/xlink" x="0px" y="0px"
	 width="150px" height="150px" viewBox="0 0 150 150" enable-background="new 0 0 150 150" xml:space="preserve">
<path fill="#FFFFFF" stroke="#231F20" stroke-width="3" stroke-miterlimit="10" d="M74.845,93.982c0,0,7.415,18.818-14.278,15.15
	c-21.693-3.67-11.01,19.977-0.071,28.679c10.939,8.703-20.398,4.53-23.386-28.258C34.123,76.771,74.845,93.982,74.845,93.982z"/>
<path fill="#FFFFFF" stroke="#231F20" stroke-width="3" stroke-miterlimit="10" d="M81.811,78.295c0,0,18.8-7.462,15.186,14.24
	c-3.615,21.702,20.004,10.961,28.68,0s4.58,20.387-28.2,23.456C64.7,119.06,81.811,78.295,81.811,78.295z"/>
<path fill="#FFFFFF" stroke="#231F20" stroke-width="3" stroke-miterlimit="10" d="M55.999,5.584
	c2.2-3.378,31.307,20.107,32.809,22.111s10.955,11.668,11.997,25.269c1.386,18.091-12.003,38.555-13.252,39.607
	c-12,10.106-28.425,0.804-28.853,0.358c-1.214-1.258-15.054-32.797-15.413-39.249C41.136,31.817,52.628,10.761,55.999,5.584z"/>
<path fill="#FFFFFF" stroke="#231F20" stroke-width="3" stroke-miterlimit="10" d="M67.21,87.087c0,0-14.227-6.209-11.491,11.849
	s-15.139,9.12-21.705,0s-3.465,16.963,21.34,19.517C80.16,121.006,67.21,87.087,67.21,87.087z"/>
<path fill="#FFFFFF" stroke="#231F20" stroke-width="3" stroke-miterlimit="10" d="M79.746,88.502c0,0,17.859-9.758,15.215,15.742
	c-2.645,25.499,2.455-13.245,20.339-8.26c2.998,2.051-13.401,13.042-19.044,31.413C88.759,151.806,79.746,88.502,79.746,88.502z"/>
<g>
	<path fill="#FFFFFF" stroke="#231F20" stroke-width="2.7871" stroke-miterlimit="10" d="M78.821,62.873
		c0.664-0.669,12.406,0.672,13.248,1.03c0.844,0.357,3.92,10.03,3.3,10.479c-0.512,0.367-14.385,2.501-14.544,2.454
		C79.91,76.569,76.813,64.897,78.821,62.873z"/>
	<circle cx="86.767" cy="69.142" r="5.09"/>
	<circle fill="#FFFFFF" cx="86.381" cy="69.098" r="1.333"/>
</g>
<g>
	<path fill="#FFFFFF" stroke="#231F20" stroke-width="2.821" stroke-miterlimit="10" d="M72.136,61.487
		c-0.93-0.665-14.667,3.299-15.602,3.896c-0.936,0.597-2.655,12.757-1.827,13.166c0.687,0.339,17.668,0.087,17.848,0
		C73.594,78.047,74.937,63.498,72.136,61.487z"/>
	<circle cx="66.107" cy="70.54" r="6.598"/>
	<circle fill="#FFFFFF" cx="66.272" cy="71.108" r="2.25"/>
</g>
<ellipse transform="matrix(0.9894 0.1451 -0.1451 0.9894 3.3374 -8.2973)" opacity="0.25" cx="58.535" cy="18.724" rx="5.645" ry="6.792"/>
<path opacity="0.25" d="M83.379,107.929c3.071-0.537,6.084,2.024,6.729,5.719c0.646,3.696-1.32,7.126-4.392,7.663"/>
<ellipse transform="matrix(-0.3148 0.9491 -0.9491 -0.3148 92.9188 -12.0214)" opacity="0.25" cx="50.798" cy="27.527" rx="4.163" ry="1.757"/>
<ellipse transform="matrix(-0.3148 0.9492 -0.9492 -0.3148 168.6326 87.321)" opacity="0.25" cx="52.798" cy="104.527" rx="4.163" ry="1.757"/>
<ellipse transform="matrix(-0.1151 0.9934 -0.9934 -0.1151 94.7736 -23.3745)" opacity="0.25" cx="57.798" cy="30.527" rx="4.163" ry="1.757"/>
<ellipse opacity="0.25" cx="52.686" cy="37" rx="2.176" ry="4.211"/>
<ellipse opacity="0.25" cx="64.686" cy="110" rx="2.176" ry="4.211"/>
<ellipse transform="matrix(0.9784 0.2067 -0.2067 0.9784 10.5004 -8.9356)" opacity="0.25" cx="48.024" cy="45.796" rx="1.536" ry="3.584"/>
<ellipse transform="matrix(0.9784 0.2067 -0.2067 0.9784 24.3283 -21.2825)" opacity="0.25" cx="114.024" cy="105.796" rx="1.536" ry="3.584"/>
<ellipse transform="matrix(0.9989 -0.0471 0.0471 0.9989 -2.1883 2.6423)" opacity="0.25" cx="55.024" cy="47.796" rx="1.536" ry="3.584"/>
<ellipse transform="matrix(0.9989 -0.0471 0.0471 0.9989 -5.6283 4.5604)" opacity="0.25" cx="94.024" cy="121.796" rx="1.535" ry="3.584"/>
<circle opacity="0.25" cx="58.787" cy="40.286" r="1.989"/>
<circle opacity="0.25" cx="50.787" cy="53.286" r="1.989"/>
<circle opacity="0.25" cx="44.787" cy="122.286" r="1.989"/>
<circle opacity="0.25" cx="57.787" cy="114.286" r="1.989"/>
<line fill="#FFFFFF" stroke="#231F20" stroke-width="3" stroke-miterlimit="10" x1="74" y1="68.5" x2="78" y2="68.5"/>
<line fill="#FFFFFF" stroke="#231F20" stroke-width="3" stroke-miterlimit="10" x1="54.488" y1="70.54" x2="47.294" y2="66.763"/>
<line fill="#FFFFFF" stroke="#231F20" stroke-width="3" stroke-miterlimit="10" x1="100.296" y1="62.689" x2="94.023" y2="68.097"/>
</svg>
