<svg xmlns="http://www.w3.org/2000/svg" xmlns:xlink="http://www.w3.org/1999/xlink" version="1.1" id="Layer_1" x="0px" y="0px" width="100px" height="100px" viewBox="0 0 100 100" enable-background="new 0 0 100 100" xml:space="preserve">
<path fill-rule="evenodd" clip-rule="evenodd" fill="#000000" d="M88.063,40.924c-3.05,2.431-6.478,5.729-10.82,4.967  c-1.23-0.217-2.048-1.026-0.501-2.882c1.545-1.857,2.226-6.882,2.226-10.486c0-14.417-11.321-26.105-25.286-26.105  c-13.966,0-25.286,11.688-25.286,26.104c0,3.604,0.707,7.038,2.028,10.663c-5.66,4.088-12.558,1.167-18.77,2.544  c-4.234,0.937-10.033,4.568-8.31,9.16c2.974,7.925,19.25,4.76,23.375,0.775c4.123-3.984,6.034-8.413,10.968-6.407  c4.705,1.913,7.355,9.065,3,12.586c-4.232,3.421-9.035,6.312-11.989,11.08c-3.292,5.312-3.423,13.729,2.456,17.204  c4.889,2.523,10.829,1.586,15.772-0.277c5.183-2.237,8.809-7.524,8.863-13.33c0.054-5.521-1.127-11.472,0.759-16.604  c1.857-5.057,8.867-1.281,10.447,2.992c1.781,4.818,3.975,10.15,8.097,13.397c3.874,3.054,9.654,3.62,14.357,2.21  c4.625-1.393,5.927-7.058,4.642-11.486c-1.301-4.486-5.206-7.923-9.86-8.121c-4.228-0.182-6.459-6.646-1.107-7.682  c4.411-0.852,10.265-0.892,12.936-5.001C99.132,41.494,92.045,37.75,88.063,40.924L88.063,40.924z M46.058,35.4  c-3.303,0.003-5.984-3.536-5.985-7.904c0-0.003,0-0.007,0-0.011c0-4.369,2.678-7.911,5.982-7.911c3.302,0,5.98,3.541,5.98,7.911  C52.037,31.854,49.36,35.398,46.058,35.4L46.058,35.4z M61.568,35.4c-3.306,0.003-5.984-3.536-5.986-7.904c0-0.003,0-0.007,0-0.011  c0-4.369,2.678-7.911,5.981-7.911s5.98,3.541,5.98,7.911C67.547,31.854,64.87,35.398,61.568,35.4z"/>
<path fill-rule="evenodd" clip-rule="evenodd" fill="#000000" d="M49.986,29.067c0.001,2.688-1.645,4.867-3.677,4.868  c-2.031,0.001-3.68-2.175-3.68-4.862c0-0.002,0-0.004,0-0.007c0-2.687,1.646-4.865,3.678-4.865  C48.339,24.202,49.986,26.38,49.986,29.067L49.986,29.067z"/>
<path fill-rule="evenodd" clip-rule="evenodd" fill="#000000" d="M64.987,29.067c0.001,2.688-1.645,4.867-3.678,4.868  c-2.03,0.001-3.679-2.175-3.68-4.862c0-0.002,0-0.004,0-0.007c0-2.687,1.646-4.865,3.679-4.865  C63.341,24.203,64.987,26.38,64.987,29.067L64.987,29.067z"/>
</svg>